<?xml version="1.0" standalone="no"?>
<!DOCTYPE svg PUBLIC "-//W3C//DTD SVG 20010904//EN"
 "http://www.w3.org/TR/2001/REC-SVG-20010904/DTD/svg10.dtd">
<svg version="1.0" xmlns="http://www.w3.org/2000/svg"
 width="500.000000pt" height="500.000000pt" viewBox="0 0 500.000000 500.000000"
 preserveAspectRatio="xMidYMid meet">
<metadata>
Created by potrace 1.11, written by Peter Selinger 2001-2013
</metadata>
<g transform="translate(0.000000,500.000000) scale(0.100000,-0.100000)"
fill="#000000" stroke="none">
<path d="M3259 4225 c-3 -2 -16 -7 -30 -9 -13 -2 -25 -5 -26 -6 -2 -1 -20 -2
-40 -2 -21 0 -46 -5 -57 -10 -14 -7 -16 -7 -11 2 6 9 2 9 -14 1 -15 -8 -21 -9
-21 -1 0 6 -5 8 -10 5 -6 -4 -8 -11 -5 -16 4 -5 1 -9 -4 -9 -6 0 -11 4 -11 9
0 4 -13 8 -30 7 -16 -1 -30 -3 -30 -6 0 -3 -29 -5 -65 -5 -51 0 -65 -3 -65
-15 -1 -12 -3 -11 -11 3 -6 9 -15 14 -21 11 -14 -9 -67 -15 -135 -17 -29 -1
-53 -4 -53 -7 0 -3 -22 -6 -50 -5 -27 1 -50 -1 -50 -5 0 -3 -30 -5 -68 -5 -37
1 -71 -1 -76 -4 -5 -2 -32 -6 -60 -7 -125 -8 -165 -12 -177 -20 -8 -4 -10 -3
-5 4 5 9 0 10 -16 4 -13 -4 -32 -7 -43 -7 -11 0 -23 -4 -27 -10 -5 -6 -8 -5
-8 3 0 7 -4 10 -10 7 -5 -3 -35 -8 -66 -11 -31 -2 -86 -7 -122 -10 -37 -2 -94
-7 -127 -10 -33 -3 -80 -6 -105 -8 -25 -2 -79 -7 -120 -10 -41 -4 -100 -9
-130 -12 -30 -3 -80 -7 -110 -10 -30 -3 -66 -6 -80 -7 -14 -1 -31 2 -39 8 -11
7 -13 7 -8 -1 4 -7 -7 -12 -31 -13 -90 -5 -147 -10 -147 -11 0 -1 -91 -9 -175
-14 -59 -3 -73 -16 -38 -34 31 -16 52 -30 115 -75 29 -21 53 -34 53 -30 0 4 4
3 8 -3 7 -11 103 -79 112 -79 3 0 21 -12 41 -28 20 -15 39 -27 44 -27 4 0 24
-14 45 -30 21 -17 50 -37 65 -44 l27 -14 -32 -17 c-47 -24 -163 -144 -185
-190 -10 -22 -21 -64 -23 -92 l-4 -53 -37 -1 c-242 -5 -481 -181 -558 -409
-26 -78 -24 -209 4 -271 21 -46 76 -109 126 -145 l28 -20 -31 -39 c-103 -129
-102 -292 1 -440 145 -209 437 -343 609 -281 l36 12 -1 -75 c0 -89 17 -130 79
-195 49 -52 85 -76 167 -117 268 -133 644 -137 753 -8 14 16 29 29 34 29 5 0
23 -20 40 -44 37 -52 84 -92 169 -143 62 -39 125 -88 195 -156 22 -20 43 -37
47 -37 4 0 17 -10 28 -23 30 -33 67 -62 76 -59 4 1 7 -5 7 -13 0 -8 4 -15 9
-15 4 0 19 -10 33 -23 13 -12 42 -35 64 -51 21 -16 47 -38 57 -48 19 -19 43
-15 30 5 -8 12 -10 21 -17 72 -3 17 -5 30 -6 30 -1 0 -3 11 -6 25 -2 14 -7 36
-11 50 -3 14 -7 27 -8 30 0 3 -5 28 -10 55 -5 28 -9 52 -9 55 -1 3 -5 11 -9
18 -9 14 17 26 78 36 72 10 93 16 182 47 108 38 196 86 256 139 47 43 87 110
87 148 l0 22 48 -25 c69 -36 143 -49 242 -42 99 7 114 10 196 37 170 55 321
174 375 296 26 58 29 153 6 207 l-16 37 32 0 c54 0 154 28 219 61 105 53 203
172 233 284 5 17 10 37 13 45 2 8 5 62 7 119 3 111 -13 194 -57 289 -57 123
-160 212 -264 228 -46 7 -51 15 -50 94 1 50 -7 44 156 110 203 82 216 89 198
106 -8 9 -24 17 -34 19 -10 2 -19 4 -19 5 0 1 -7 3 -15 5 -44 11 -62 16 -145
41 -49 14 -95 27 -102 28 -7 1 -16 5 -19 9 -4 4 -17 7 -29 7 -12 0 -25 3 -29
8 -4 4 -15 7 -24 8 -28 1 -67 21 -120 59 -116 83 -282 134 -462 141 -63 3
-126 7 -140 10 -14 3 -26 5 -27 5 -2 0 -21 6 -43 14 -22 8 -41 14 -43 14 -1
-1 -29 7 -62 17 -33 10 -64 19 -70 20 -79 17 -87 10 -39 -31 20 -17 44 -37 54
-47 10 -9 21 -14 24 -11 3 4 6 -1 6 -10 0 -10 8 -17 18 -17 11 -1 7 -6 -13
-17 -44 -23 -75 -49 -100 -84 l-23 -30 -6 24 c-7 28 -70 123 -101 152 -106
100 -293 168 -500 182 -49 3 -92 7 -94 9 -2 2 8 8 22 13 14 5 28 15 32 21 3 5
10 8 14 6 4 -3 18 4 29 15 12 10 25 20 29 20 17 0 93 43 93 51 0 5 4 7 9 3 5
-3 17 2 25 11 9 8 16 13 16 10 0 -4 18 5 40 19 22 14 44 25 50 25 5 0 10 5 10
12 0 6 3 9 6 5 4 -3 13 1 21 9 8 8 18 12 23 9 4 -3 13 2 20 10 7 8 18 15 25
15 8 0 15 3 17 8 2 4 28 20 58 35 30 16 71 42 90 58 34 28 34 29 9 29 -14 0
-30 5 -35 10 -6 6 -13 8 -15 5z"/>
<path d="M1892 929 c-28 -14 -50 -34 -60 -55 -15 -32 -32 -45 -32 -25 0 19
-108 63 -154 63 -86 0 -151 -64 -155 -153 -1 -10 -12 -15 -37 -16 -118 -3
-171 -183 -69 -232 17 -8 39 -16 50 -17 11 -1 21 -3 23 -3 1 -1 -4 -16 -11
-33 -16 -41 -15 -90 3 -124 27 -50 95 -58 178 -19 54 25 72 25 72 1 0 -41 111
-94 190 -90 98 5 188 51 205 105 6 18 8 18 36 3 17 -8 52 -18 78 -21 114 -13
185 78 145 189 -8 22 -14 42 -14 43 0 1 13 5 29 8 40 8 73 58 74 110 0 57 -15
90 -56 121 -37 29 -102 36 -150 17 -38 -15 -37 -15 -37 17 0 91 -203 165 -308
111z"/>
<path d="M1364 89 c-17 -5 -38 -17 -48 -28 -17 -19 -18 -19 -53 5 -25 17 -45
22 -69 19 -39 -5 -89 -36 -104 -66 -10 -18 -5 -19 205 -19 189 0 215 2 215 16
0 20 -54 74 -73 74 -9 0 -21 2 -29 4 -7 2 -27 0 -44 -5z"/>
</g>
</svg>
